name C:\Users\u0101727\Documents\MyRepositories\upper-imu-dc\Results\main_tracking\Case_41\FLX01_linearAccelerations_bodyFrame.mot
datacolumns 4
datarows 129
range 2.01000000 3.29000000
endheader 
time	radius_imu_x	radius_imu_y	radius_imu_z	
          2.01000000	         -6.08509580	         -2.93241403	          7.18341142	
          2.02000000	         -5.95392887	         -3.10137461	          7.04475957	
          2.03000000	         -5.81352540	         -3.26990861	          6.91127580	
          2.04000000	         -5.66693853	         -3.43726804	          6.78561739	
          2.05000000	         -5.51705418	         -3.60266098	          6.67008002	
          2.06000000	         -5.36649888	         -3.76522614	          6.56665163	
          2.07000000	         -5.21768498	         -3.92404646	          6.47701501	
          2.08000000	         -5.07292870	         -4.07820996	          6.40246700	
          2.09000000	         -4.93453368	         -4.22690675	          6.34376543	
          2.10000000	         -4.80475275	         -4.36954843	          6.30093311	
          2.11000000	         -4.68561891	         -4.50589147	          6.27307637	
          2.12000000	         -4.57874360	         -4.63611456	          6.25832347	
          2.13000000	         -4.48520690	         -4.76079418	          6.25394164	
          2.14000000	         -4.40556032	         -4.88076952	          6.25658627	
          2.15000000	         -4.33990641	         -4.99693843	          6.26268385	
          2.16000000	         -4.28792058	         -5.11007283	          6.26882621	
          2.17000000	         -4.24877752	         -5.22071465	          6.27207311	
          2.18000000	         -4.22103984	         -5.32915898	          6.27011718	
          2.19000000	         -4.20260051	         -5.43550430	          6.26131579	
          2.20000000	         -4.19076242	         -5.53972750	          6.24463727	
          2.21000000	         -4.18249223	         -5.64172962	          6.21958950	
          2.22000000	         -4.17481821	         -5.74132535	          6.18616870	
          2.23000000	         -4.16525444	         -5.83820849	          6.14478280	
          2.24000000	         -4.15212427	         -5.93195763	          6.09608340	
          2.25000000	         -4.13466323	         -6.02210867	          6.04069969	
          2.26000000	         -4.11286497	         -6.10826817	          5.97896478	
          2.27000000	         -4.08714199	         -6.19022320	          5.91075221	
          2.28000000	         -4.05794526	         -6.26801143	          5.83550614	
          2.29000000	         -4.02547519	         -6.34194571	          5.75246218	
          2.30000000	         -3.98954390	         -6.41258605	          5.66098361	
          2.31000000	         -3.94958519	         -6.48067408	          5.56090987	
          2.32000000	         -3.90479010	         -6.54703455	          5.45282894	
          2.33000000	         -3.85434000	         -6.61245679	          5.33822069	
          2.34000000	         -3.79768554	         -6.67757653	          5.21943057	
          2.35000000	         -3.73478813	         -6.74279952	          5.09945155	
          2.36000000	         -3.66624100	         -6.80829461	          4.98157145	
          2.37000000	         -3.59321635	         -6.87403450	          4.86901949	
          2.38000000	         -3.51723877	         -6.93984579	          4.76472556	
          2.39000000	         -3.43986051	         -7.00546106	          4.67120136	
          2.40000000	         -3.36236700	         -7.07057164	          4.59048560	
          2.41000000	         -3.28561592	         -7.13486707	          4.52409337	
          2.42000000	         -3.21004769	         -7.19805940	          4.47294607	
          2.43000000	         -3.13582098	         -7.25990779	          4.43729237	
          2.44000000	         -3.06299755	         -7.32024517	          4.41665394	
          2.45000000	         -2.99171283	         -7.37899377	          4.40982266	
          2.46000000	         -2.92229542	         -7.43616463	          4.41491457	
          2.47000000	         -2.85532328	         -7.49184632	          4.42947325	
          2.48000000	         -2.79162520	         -7.54618351	          4.45061865	
          2.49000000	         -2.73223956	         -7.59934436	          4.47524365	
          2.50000000	         -2.67832320	         -7.65149233	          4.50025183	
          2.51000000	         -2.63098694	         -7.70278079	          4.52281081	
          2.52000000	         -2.59105679	         -7.75335563	          4.54057949	
          2.53000000	         -2.55881691	         -7.80333694	          4.55186188	
          2.54000000	         -2.53382693	         -7.85278764	          4.55565542	
          2.55000000	         -2.51488480	         -7.90170272	          4.55159616	
          2.56000000	         -2.50015704	         -7.95003278	          4.53983500	
          2.57000000	         -2.48744316	         -7.99772027	          4.52088258	
          2.58000000	         -2.47453802	         -8.04471057	          4.49546969	
          2.59000000	         -2.45957573	         -8.09093049	          4.46443135	
          2.60000000	         -2.44129504	         -8.13624343	          4.42863346	
          2.61000000	         -2.41915073	         -8.18041687	          4.38892623	
          2.62000000	         -2.39325533	         -8.22314744	          4.34609873	
          2.63000000	         -2.36419253	         -8.26414390	          4.30081452	
          2.64000000	         -2.33279890	         -8.30322539	          4.25352723	
          2.65000000	         -2.29998341	         -8.34038786	          4.20439864	
          2.66000000	         -2.26662267	         -8.37581816	          4.15326068	
          2.67000000	         -2.23352420	         -8.40986080	          4.09965973	
          2.68000000	         -2.20141933	         -8.44294873	          4.04299127	
          2.69000000	         -2.17095152	         -8.47550699	          3.98268403	
          2.70000000	         -2.14264805	         -8.50784263	          3.91836129	
          2.71000000	         -2.11687403	         -8.54005097	          3.84992262	
          2.72000000	         -2.09376035	         -8.57197350	          3.77754132	
          2.73000000	         -2.07310038	         -8.60323118	          3.70161521	
          2.74000000	         -2.05424179	         -8.63332860	          3.62271634	
          2.75000000	         -2.03603628	         -8.66179627	          3.54156062	
          2.76000000	         -2.01690260	         -8.68831294	          3.45898398	
          2.77000000	         -1.99500106	         -8.71277354	          3.37588641	
          2.78000000	         -1.96844114	         -8.73523666	          3.29315481	
          2.79000000	         -1.93557549	         -8.75590255	          3.21160523	
          2.80000000	         -1.89514594	         -8.77505008	          3.13191776	
          2.81000000	         -1.84641655	         -8.79297891	          3.05452696	
          2.82000000	         -1.78927198	         -8.81005483	          2.97969882	
          2.83000000	         -1.72419699	         -8.82667608	          2.90751326	
          2.84000000	         -1.65217163	         -8.84328194	          2.83783737	
          2.85000000	         -1.57449646	         -8.86031450	          2.77029725	
          2.86000000	         -1.49258936	         -8.87816166	          2.70429059	
          2.87000000	         -1.40782336	         -8.89710722	          2.63907542	
          2.88000000	         -1.32143013	         -8.91731269	          2.57393174	
          2.89000000	         -1.23444509	         -8.93883451	          2.50835187	
          2.90000000	         -1.14765801	         -8.96166118	          2.44219722	
          2.91000000	         -1.06156108	         -8.98575049	          2.37577538	
          2.92000000	         -0.97631642	         -9.01105528	          2.30982903	
          2.93000000	         -0.89177605	         -9.03753652	          2.24546126	
          2.94000000	         -0.80757294	         -9.06516045	          2.18402943	
          2.95000000	         -0.72327343	         -9.09387656	          2.12702402	
          2.96000000	         -0.63856191	         -9.12357420	          2.07593185	
          2.97000000	         -0.55342020	         -9.15402286	          2.03208556	
          2.98000000	         -0.46825381	         -9.18482018	          1.99652179	
          2.99000000	         -0.38391459	         -9.21539410	          1.96988444	
          3.00000000	         -0.30160016	         -9.24508250	          1.95239490	
          3.01000000	         -0.22266288	         -9.27325292	          1.94388063	
          3.02000000	         -0.14840242	         -9.29939613	          1.94383620	
          3.03000000	         -0.07991880	         -9.32315415	          1.95149081	
          3.04000000	         -0.01806580	         -9.34429044	          1.96586707	
          3.05000000	          0.03651838	         -9.36263505	          1.98583070	
          3.06000000	          0.08337633	         -9.37804095	          2.01013851	
          3.07000000	          0.12225701	         -9.39038709	          2.03748581	
          3.08000000	          0.15320424	         -9.39963955	          2.06655989	
          3.09000000	          0.17664064	         -9.40593695	          2.09610503	
          3.10000000	          0.19337043	         -9.40964241	          2.12499616	
          3.11000000	          0.20446842	         -9.41132662	          2.15232570	
          3.12000000	          0.21109596	         -9.41167978	          2.17749027	
          3.13000000	          0.21432015	         -9.41139132	          2.20025112	
          3.14000000	          0.21499138	         -9.41104313	          2.22074491	
          3.15000000	          0.21369686	         -9.41103656	          2.23942878	
          3.16000000	          0.21077016	         -9.41155494	          2.25696054	
          3.17000000	          0.20635000	         -9.41257062	          2.27404686	
          3.18000000	          0.20044427	         -9.41388835	          2.29129849	
          3.19000000	          0.19300988	         -9.41522285	          2.30913818	
          3.20000000	          0.18404571	         -9.41628100	          2.32777838	
          3.21000000	          0.17367034	         -9.41681050	          2.34725770	
          3.22000000	          0.16216256	         -9.41662258	          2.36751156	
          3.23000000	          0.14996515	         -9.41559975	          2.38845397	
          3.24000000	          0.13765782	         -9.41369766	          2.41004332	
          3.25000000	          0.12589958	         -9.41094289	          2.43230303	
          3.26000000	          0.11534274	         -9.40743244	          2.45528231	
          3.27000000	          0.10653467	         -9.40334132	          2.47897434	
          3.28000000	          0.09982699	         -9.39893548	          2.50323151	
          3.29000000	          0.09530238	         -9.39457044	          2.52770975	
